<svg version="1.0" xmlns="http://www.w3.org/2000/svg"
 width="32.000000pt" height="32.000000pt" viewBox="0 0 32.000000 32.000000"
 preserveAspectRatio="xMidYMid meet">

<g transform="translate(0.000000,32.000000) scale(0.100000,-0.100000)"
fill="#000000" stroke="none">
<path d="M124 139 c-4 -8 -26 -10 -60 -6 -30 3 -56 1 -59 -4 -3 -5 1 -6 9 -3
11 4 16 0 16 -12 0 -16 2 -17 10 -4 6 9 13 11 17 5 10 -13 43 -16 43 -3 0 5 8
7 18 4 13 -4 18 0 19 14 2 22 -2 25 -13 9z"/>
<path d="M183 131 c1 -16 6 -19 20 -15 12 4 17 2 13 -4 -3 -6 5 -9 19 -8 14 0
25 5 25 10 0 5 7 3 15 -4 12 -10 15 -9 15 5 0 11 5 15 16 11 9 -3 12 -2 8 5
-4 6 -17 8 -33 3 -35 -9 -71 -7 -87 7 -10 8 -13 6 -11 -10z"/>
</g>
</svg>
