<svg version="1.0" xmlns="http://www.w3.org/2000/svg"
 width="32.000000pt" height="32.000000pt" viewBox="0 0 32.000000 32.000000"
 preserveAspectRatio="xMidYMid meet">

<g transform="translate(0.000000,32.000000) scale(0.100000,-0.100000)"
fill="#000000" stroke="none">
<path d="M53 259 c-49 -18 -68 -109 -34 -165 34 -55 92 -48 121 13 8 18 17 33
20 33 3 0 12 -15 20 -33 29 -61 87 -68 121 -13 24 40 24 92 0 132 -34 55 -92
48 -121 -13 -16 -34 -30 -43 -30 -19 0 19 -36 63 -58 68 -10 3 -27 1 -39 -3z
m66 -35 c27 -35 27 -93 0 -128 -43 -54 -99 -18 -99 64 0 82 56 118 99 64z
m161 6 c15 -15 20 -33 20 -70 0 -82 -56 -118 -99 -64 -27 35 -27 93 0 128 24
31 52 33 79 6z"/>
<path d="M58 186 c-10 -10 -18 -22 -18 -27 0 -12 49 -31 61 -23 13 8 11 41 -3
50 -7 4 -8 3 -4 -4 4 -7 3 -12 -3 -12 -5 0 -11 8 -13 17 -3 15 -4 15 -20 -1z"/>
<path d="M228 189 c-27 -15 -22 -46 9 -53 35 -9 53 14 33 44 -6 10 -10 11 -10
3 0 -7 -5 -13 -11 -13 -6 0 -9 7 -5 15 6 17 6 17 -16 4z"/>
</g>
</svg>
